<?xml version="1.0" encoding="UTF-8" standalone="no"?>
<svg xmlns="http://www.w3.org/2000/svg" id="yak-svg" viewBox="0 0 512 512" height="512" width="512" preserveAspectRatio="none">
	<defs>
		<filter color-interpolation-filters="sRGB" height="140" width="140" y="-20" x="-20" id="filter">
			<feFlood result="result1" in="SourceGraphic" flood-opacity="1" flood-color="#333333"/>
			<feComposite result="result2" operator="in" in="result1" in2="SourceGraphic"/>
			<feOffset result="result3" in="result2" dy="12" dx="12"/>
			<feComposite result="result4" operator="over" in="SourceGraphic" in2="result3"/>
		</filter>
	</defs>
	<g id="border" filter="url(#filter)">
		<path d="M431.7 222.4Q419 211.9 407.9 215.8 397.2 217.8 389.2 233.1L389.3 233.1Q387 237.3 385 242.9 384.9 243 384.9 243.1 384.6 243.9 384.6 244.7 384.1 245.3 383.8 245.9 383.6 246.1 383.6 246.4 381.6 251 379.4 254.3L379.5 254.3Q376.2 259.2 372 258.2 372 258.2 371.9 258.2 371.3 257.9 370.8 257.8L370.7 257.8Q366.6 256.6 362.5 255.5 362.3 255.4 362.1 255.4 344.4 250.5 327.9 246.1 306 240.2 286.2 235.2 286 235.1 285.8 235.1 278.6 233.2 271.6 231.5 269.9 218.6 268.3 197 267 179.1 265.8 155.5L265.8 155.5Q265.4 147.8 265 139.6 263.9 97.3 247.6 78.8L247.6 78.9Q237.2 66.4 228.3 65.6 215.5 62.2 206.6 76.3 206.4 76.5 206.3 76.7 200.9 85.2 192 109.7 188.3 119.9 183.9 133 183.8 133.3 183.7 133.7 181.8 139.2 179.9 145.3 179.8 145.5 179.7 145.7 172.9 166.8 166.3 182.8 160.6 196.6 154.9 206.4 153.4 206.1 151.9 205.9 141.9 204.3 133.8 203.2 117 200.8 107.2 200.5 111.2 185.4 112.4 178.6 113.6 172.3 113 168.9 112.2 162.9 108.5 161.3 102.9 155.2 94.3 160.8 92.5 161.6 90.5 164.4 90.4 164.4 90.4 164.5 89.3 165.9 87.7 169 87.6 169.1 87.6 169.3L87.5 169.5Q80.2 185.3 75.4 203.8 68.6 205.1 64.8 207.4 64.7 207.4 64.6 207.5 51.2 214.8 55.3 227.3 57 236.3 66.6 243.7 61.1 273 59.8 284.1 59 290.9 59.7 294.6 60.9 301.3 65 302.5 68.4 305.5 72.4 304.8 76.2 304.8 80.4 300.4 81.7 299.4 83.1 296.6L83.1 296.7Q84 295 85.4 291.4 90.5 277.3 93.6 260.1 99.1 262.8 106.6 265.8 106.9 265.9 107.2 266 115.4 269.1 126 272.5L126.9 277.7 126.9 277.6Q127.4 280.9 129.6 283.4 132.6 287.4 136.8 289.3 137.5 291.1 138.9 296.6 142.7 312.6 144.7 346 144.7 346.3 144.8 346.5 144.8 347.6 144.9 348.7 144.8 348.8 144.9 349L148.4 415.4Q148.4 415.4 148.4 415.5 148.5 416 148.6 416.6L148.6 416.6Q152.9 444.2 169.6 446.2 183.3 450.9 204.7 432.3 204.8 432.2 204.9 432.2L205.1 431.9 205.2 431.9Q213.1 424.9 223.8 403.4 223.9 403.1 224 402.9 232.3 385.9 242.6 359.2 243.4 357 244.3 354.9 244.3 354.7 244.4 354.6L244.4 354.6Q249 342.8 252.7 333.7L252.7 333.6Q257.8 321.1 261.3 313.8 262.5 311.2 263.1 309.2 273.8 308.8 299.9 310.6 309 311.2 319.8 312.1 320.1 312.1 320.3 312.1 339.2 313.5 363.5 315.8 367.7 316.2 372.1 316.6 372.8 318.6 373.4 320.9 374.1 323.7 374.7 326.8 374.7 327 374.7 327.1 381.4 361.7 399.6 363.9 409.7 367.8 420.3 355.1L420.4 355.1Q425.9 348.5 432.1 334.5 435.5 326.8 439.1 316.7 456 310 457 296.4 458.3 289.4 454.9 280.8 454.7 280.5 454.6 280.2 453.1 276.7 451.7 273.8 451.5 273.5 451.4 273.2L449.7 270.2 449.7 270.2Q449.3 269.5 448.9 268.8 448.8 268.6 448.6 268.4 446.7 265.5 444.9 263.4 444.8 259.2 444.5 255.5 444.5 255.3 444.5 255.1L444.5 255.1Q442.6 229.2 431.7 222.4Z" fill="#FFF"/>
	</g>
	<g id="yak">
		<path d="M199.7 399.1Q193.1 400.2 185.1 402.6 180 404.1 170.8 407.2 165.5 408.9 160.2 410.7L160.4 414.7Q166 450.1 197 423.1 203.8 416.8 213.2 397.7 205.7 398.1 199.7 399.1M156.9 348.3L158.2 373.5Q159.1 372.6 160 371.6 163.3 368.2 164.7 366.3 166.9 363.1 167 360 167 356.4 164.3 352.8 162.5 350.3 158.6 346.9 157.6 346.1 156.7 345.3 156.8 346.8 156.9 348.3M99.3 231.2Q99.7 229.2 100 224.4 100.5 218.6 101.5 212.6 96.7 212.8 95.3 214 101 223.3 87.5 241.6 87.7 241.8 87.9 242 90.2 244.4 94.5 247 95 245.7 95.7 243.9 97.2 239.8 97.8 237.6 98.9 234.1 99.3 231.2M150.8 219.5Q150.4 218.7 150 217.8 140.2 216.2 132.2 215.1 132.1 215.4 132 215.7 130.9 218.4 127.7 220.4 126.6 221.1 124.8 221.9 123.9 222.4 121.9 223.3 119 224.8 118.1 226.4 117.3 227.7 117.1 230 116.9 231.8 117.1 237 117.1 241.4 116.6 243.9 115.6 248.6 112.1 253.2 111.6 253.9 111 254.6 121.6 258.7 136.6 263.2L138.7 275.6Q138.8 275.7 138.9 275.8L139 275.9Q140.4 277.9 142.5 278.6 147.2 280.2 150.6 293.8 151 293.9 151.4 293.9 152 293.7 152.6 293.6 155.1 293.1 158.1 294 160.1 294.6 163.4 296.2 164.3 296.7 165.3 297.3 173.5 299.8 181.4 303.7 202.9 314.4 217.5 332.8 219.2 335 222.6 339.6 225.7 343.5 228.3 346 230.1 347.9 233.2 350.3 237.8 338.4 241.6 329.2 240.8 328.1 239.6 326.3 238.6 324.8 237.6 323.2 236.5 321.6 235.4 320 230.7 313.5 224.8 306.3 219.6 299.9 208.6 287.3 203.8 281.8 201.3 279.3 197 274.9 193.1 272.1 190.2 270 185.8 267.5 183.2 266.1 178.2 263.3 169 258.2 164.7 253.1 160.1 247.6 156.7 237 155.8 234 154 228.1 152.4 223 150.8 219.5M201.5 144.8Q198.2 140.1 196 137.6 195.7 137.3 195.3 136.8 193.3 142.8 191.2 149.3 184.2 171 177.4 187.4 183.5 195.2 193.5 204.3 206.1 215.4 212.2 221 222.8 230.8 229.1 239.7 237 250.8 239.6 261.9 240.6 266.4 241.8 280 242.8 291.3 245.2 297.6 246.1 300.1 248.6 304.9 249.6 307 250.4 308.7 255.8 297.3 257.4 297.6 266.7 296.4 300.7 298.6 300.5 297.2 300 295.4 299.2 292.6 298.8 291.2 298.2 289 297.9 288.2 297.3 286.5 296.5 285.5 295.7 284.6 294.3 283.7 292.8 282.7 292 282.1 288.5 279.4 286.9 274.2 285.6 270.3 285.5 264.5 285.2 256.5 285 254.7 284.5 250 282.9 246.7 271.6 243.9 261 241.3 258.6 227.6 256.4 197.9 253.9 199.2 250.8 198.8 247.6 198.4 244.9 196.5 242.5 194.8 240.5 192 239 189.8 237.3 186.5 236.4 184.7 234.5 180.9 232.8 177.7 231.2 175.6 229.8 173.7 227.6 171.7 226.5 170.6 223.7 168.3 218.1 163.7 214.9 160.6 210.2 156.2 206.9 152.1 205.4 150.2 201.5 144.8M238.4 86.6Q224.7 70.2 216.7 82.7 211.8 90.4 203.3 113.8 203.4 114 203.5 114.2 205.8 119.2 211.5 123.6 213.6 125.3 222 130.8 230.6 136.3 240.4 144.4 245.5 148.7 253.8 156.1 253.4 148.5 253 140.2 252.1 103 238.4 86.6M389.3 321.1Q387.2 319.1 385 318 385.8 321.2 386.5 324.8 391.3 349.7 402.5 352.2 406.4 353.1 411.1 347.4L411.1 347.4Q407.2 340.8 404.4 337.4 403 335.7 400.2 332.9 397 329.7 395.9 328.4 395.3 327.8 392.7 324.7 390.7 322.4 389.3 321.1M431.1 255.9Q431.8 255.9 432.6 256 431.2 237.3 424.5 232 409.9 219.6 399.9 238.7 400.1 238.8 400.4 239L402.1 240.3Q402.7 240.7 404.3 241.7 405.7 242.5 406.5 243.1 408.9 244.9 410.5 247.6 412.1 250.2 412.8 253.3 413 254.1 413.3 255.5 413.6 256.7 414 257.6 414.3 258.3 414.8 258.5 415.3 258.8 416.3 258.5 420.3 257.3 424.3 256.6 428.2 255.9 431.1 255.9M434.1 269.6Q433.5 269.1 432.9 268.8 428.5 265.9 426.3 265.1 416.2 261.7 404.2 266.6 402.2 263.8 401.2 260.3 400.7 258.2 400.4 257.2 399.8 255.4 399 254.3 398.3 253.4 397.1 252.5 396.4 251.9 394.9 251.1 394.8 251 394.7 251 392.2 256.9 389.4 261 389.9 261.1 390.3 261.2 392.9 261.9 394.9 263 397.1 264.2 398.7 266.1 399.6 267.2 400.1 268.4 392.7 272.1 384.7 278.8 382.5 278.1 379.4 277.9 375.5 277.8 373.5 277.8 370.1 277.7 367.6 277.1 364.5 276.3 362.4 274.6 360.8 273.2 360 271.5 359.3 269.8 359.2 267.9 359.2 267.5 359.3 267 341.5 262.1 324.8 257.7 324.4 259.2 323.8 261.1 322.3 265.1 321.7 267.1 319.6 274 319.5 282.5 319.4 289.2 320.6 298.3 320.7 299.3 320.8 300.1 340 301.6 364.6 303.9 365.8 301.7 367.8 300.4 369.4 299.4 371.6 298.9 373.2 298.5 375.7 298.3 382.1 297.8 386.8 299 393.5 300.8 400.5 307.1 402.8 309.2 406.1 312.8 411.1 318.1 411.6 318.6 412.9 319.9 415.4 322.5 417.6 324.8 419 326.6 420 327.9 421.1 329.6 425.2 320.3 429.7 307.2 443.6 303.3 445.1 294.6 445.8 290.5 443.7 285.3 442.3 281.9 441 279.2L439.3 276.1Q439 275.6 438.7 275.2L438.7 275.2Q436.4 271.6 434.1 269.7L434.1 269.6Z" fill="#3D4C41"/>
		<path d="M321.7 267.1Q322.3 265.1 323.8 261.1 324.4 259.2 324.8 257.7 302.8 251.8 282.9 246.7 284.5 250 285 254.7 285.2 256.5 285.5 264.5 285.6 270.3 286.9 274.2 288.5 279.4 292 282.1 292.8 282.7 294.3 283.7 295.7 284.6 296.5 285.5 297.3 286.5 297.9 288.2 298.2 289 298.8 291.2 299.2 292.6 300 295.4 300.5 297.2 300.7 298.6 309.9 299.2 320.8 300.1 320.7 299.3 320.6 298.3 319.4 289.2 319.5 282.5 319.6 274 321.7 267.1M151.4 293.9Q151 293.9 150.6 293.8 154.7 310.5 156.7 345.3 157.6 346.1 158.6 346.9 162.5 350.3 164.3 352.8 167 356.4 167 360 166.9 363.1 164.7 366.3 163.3 368.2 160 371.6 159.1 372.6 158.2 373.5L160.2 410.7Q165.5 408.9 170.8 407.2 180 404.1 185.1 402.6 193.1 400.2 199.7 399.1 205.7 398.1 213.2 397.7 221.3 381.1 231.4 354.9 232.3 352.6 233.2 350.3 230.1 347.9 228.3 346 225.7 343.5 222.6 339.6 219.2 335 217.5 332.8 202.9 314.4 181.4 303.7 173.5 299.8 165.3 297.3 164.3 296.7 163.4 296.2 160.1 294.6 158.1 294 155.1 293.1 152.6 293.6 152 293.7 151.4 293.9M132 215.7Q132.1 215.4 132.2 215.1 110.7 212.1 101.5 212.6 100.5 218.6 100 224.4 99.7 229.2 99.3 231.2 98.9 234.1 97.8 237.6 97.2 239.8 95.7 243.9 95 245.7 94.5 247 100.7 250.6 111 254.6 111.6 253.9 112.1 253.2 115.6 248.6 116.6 243.9 117.1 241.4 117.1 237 116.9 231.8 117.1 230 117.3 227.7 118.1 226.4 119 224.8 121.9 223.3 123.9 222.4 124.8 221.9 126.6 221.1 127.7 220.4 130.9 218.4 132 215.7M160.9 219.6Q155.2 218.6 150 217.8 150.4 218.7 150.8 219.5 152.4 223 154 228.1 155.8 234 156.7 237 160.1 247.6 164.7 253.1 169 258.2 178.2 263.3 183.2 266.1 185.8 267.5 190.2 270 193.1 272.1 197 274.9 201.3 279.3 203.8 281.8 208.6 287.3 219.6 299.9 224.8 306.3 230.7 313.5 235.4 320 236.5 321.6 237.6 323.2 238.6 324.8 239.6 326.3 240.8 328.1 241.6 329.2 246.8 316.3 250.4 308.7 249.6 307 248.6 304.9 246.1 300.1 245.2 297.6 242.8 291.3 241.8 280 240.6 266.4 239.6 261.9 237 250.8 229.1 239.7 222.8 230.8 212.2 221 206.1 215.4 193.5 204.3 183.5 195.2 177.4 187.4 169.1 207.4 160.9 219.6M203.5 114.2Q203.4 114 203.3 113.8 199.7 123.9 195.3 136.8 195.7 137.3 196 137.6 198.2 140.1 201.5 144.8 205.4 150.2 206.9 152.1 210.2 156.2 214.9 160.6 218.1 163.7 223.7 168.3 226.5 170.6 227.6 171.7 229.8 173.7 231.2 175.6 232.8 177.7 234.5 180.9 236.4 184.7 237.3 186.5 239 189.8 240.5 192 242.5 194.8 244.9 196.5 247.6 198.4 250.8 198.8 253.9 199.2 256.4 197.9 255 179.9 253.8 156.1 245.5 148.7 240.4 144.4 230.6 136.3 222 130.8 213.6 125.3 211.5 123.6 205.8 119.2 203.5 114.2M385 318Q387.2 319.1 389.3 321.1 390.7 322.4 392.7 324.7 395.3 327.8 395.9 328.4 397 329.7 400.2 332.9 403 335.7 404.4 337.4 407.2 340.8 411.1 347.4L411.1 347.4Q415.8 341.8 421.1 329.6 420 327.9 419 326.6 417.6 324.8 415.4 322.5 412.9 319.9 411.6 318.6 411.1 318.1 406.1 312.8 402.8 309.2 400.5 307.1 393.5 300.8 386.8 299 382.1 297.8 375.7 298.3 373.2 298.5 371.6 298.9 369.4 299.4 367.8 300.4 365.8 301.7 364.6 303.9 372.3 304.6 380.6 305.3 383.2 310.7 385 318M360 271.5Q360.8 273.2 362.4 274.6 364.5 276.3 367.6 277.1 370.1 277.7 373.5 277.8 375.5 277.8 379.4 277.9 382.5 278.1 384.7 278.8 392.7 272.1 400.1 268.4 399.6 267.2 398.7 266.1 397.1 264.2 394.9 263 392.9 261.9 390.3 261.2 389.9 261.1 389.4 261 380.3 274.6 367.6 269.3 363.4 268.2 359.3 267 359.2 267.5 359.2 267.9 359.3 269.8 360 271.5M438.7 275.2Q439 275.6 439.3 276.1 439 275.6 438.7 275.2L438.7 275.2M426.3 265.1Q428.5 265.9 432.9 268.8 433 261.7 432.6 256 431.8 255.9 431.1 255.9 428.2 255.9 424.3 256.6 420.3 257.3 416.3 258.5 415.3 258.8 414.8 258.5 414.3 258.3 414 257.6 413.6 256.7 413.3 255.5 413 254.1 412.8 253.3 412.1 250.2 410.5 247.6 408.9 244.9 406.5 243.1 405.7 242.5 404.3 241.7 402.7 240.7 402.1 240.3L400.4 239Q400.1 238.8 399.9 238.7 398 242.3 396.2 247 395.5 249.1 394.7 251 394.8 251 394.9 251.1 396.4 251.9 397.1 252.5 398.3 253.4 399 254.3 399.8 255.4 400.4 257.2 400.7 258.2 401.2 260.3 402.2 263.8 404.2 266.6 416.2 261.7 426.3 265.1M432.9 268.8Q433.5 269.1 434.1 269.6L434.1 269.7Q433.5 269.2 432.9 268.8Z" fill="#70786E"/>
		<path d="M84.4 240.2Q84.6 238.4 84.7 236.5L80.5 234.7Q80.2 236.4 79.9 238 66.5 308.3 74.1 287.3 81.4 267.1 84.4 240.2M85.2 214.5Q87.9 214.2 91.1 214.1 106.5 158.6 98.4 174.5 90 192.7 85.2 214.5Z" fill="#333"/>
		<path d="M91.1 214.1Q87.9 214.2 85.2 214.5 65 216.4 67 224.4 68.9 232 79.9 238 80.2 236.4 80.5 234.7L84.7 236.5Q84.6 238.4 84.4 240.2 84.9 240.5 85.5 240.7L87.5 241.6Q101 223.3 95.3 214L92.8 214Q92 214 91.1 214.1Z" fill="#B6282A"/>
	</g>
</svg>
